PathFileType	4	(X/Y/Z)	/Users/itak/Documents/Research/Walk-IL/dataset/trc/00515_00183.trc
DataRate	CameraRate	NumFrames	NumMarkers	Units	OrigDataRate	OrigDataStartFrame	OrigNumFrames
100.000000	100.000000	4	55	mm	100.000000	325	521
Frame#	Time	RPSI			LPSI			L3			STRN			T10			C7			CLAV			RBAK			LBAK			LSHO			LUPA			LAEL			LAOL			LWTS			LWPS			LFRA			LIFD			LHPS			LHTS			RSHO			RUPA			RAEL			RAOL			RWTS			RWPS			RFRA			RIFD			RHTS			RHPS			RBHD			LFHD			RFHD			LBHD			LHIP			RHIP			RASI			LASI			LKNE			LTHI			LANK			LTIP			LTOE			LMT1			LMT5			LHEE			RKNE			RTHI			RANK			RTIP			RTOE			RMT1			RMT5			RHEE			*53			*54			
		X1	Y1	Z1	X2	Y2	Z2	X3	Y3	Z3	X4	Y4	Z4	X5	Y5	Z5	X6	Y6	Z6	X7	Y7	Z7	X8	Y8	Z8	X9	Y9	Z9	X10	Y10	Z10	X11	Y11	Z11	X12	Y12	Z12	X13	Y13	Z13	X14	Y14	Z14	X15	Y15	Z15	X16	Y16	Z16	X17	Y17	Z17	X18	Y18	Z18	X19	Y19	Z19	X20	Y20	Z20	X21	Y21	Z21	X22	Y22	Z22	X23	Y23	Z23	X24	Y24	Z24	X25	Y25	Z25	X26	Y26	Z26	X27	Y27	Z27	X28	Y28	Z28	X29	Y29	Z29	X30	Y30	Z30	X31	Y31	Z31	X32	Y32	Z32	X33	Y33	Z33	X34	Y34	Z34	X35	Y35	Z35	X36	Y36	Z36	X37	Y37	Z37	X38	Y38	Z38	X39	Y39	Z39	X40	Y40	Z40	X41	Y41	Z41	X42	Y42	Z42	X43	Y43	Z43	X44	Y44	Z44	X45	Y45	Z45	X46	Y46	Z46	X47	Y47	Z47	X48	Y48	Z48	X49	Y49	Z49	X50	Y50	Z50	X51	Y51	Z51	X52	Y52	Z52	X53	Y53	Z53	X54	Y54	Z54	X55	Y55	Z55	

326	3.25	206.3497467041016	950.5037231445312	-237.6494445800781	242.9241180419922	961.8086547851562	-354.7578125	223.4703979492188	1030.637939453125	-304.3592224121094	433.7374572753906	1196.270751953125	-252.6530914306641	211.9782409667969	1131.18603515625	-309.6230163574219	253.1069488525391	1362.74755859375	-296.5821838378906	398.9032897949219	1291.30908203125	-260.3761291503906	183.2789611816406	1241.468872070312	-226.7593994140625	249.7905120849609	1308.03125	-386.7626037597656	356.3183288574219	1360.28759765625	-435.1307373046875	365.2786560058594	1237.352905273438	-501.5077819824219	395.783447265625	1031.37060546875	-539.3226928710938	315.8161010742188	1012.390991210938	-482.3166198730469	493.6597900390625	849.9978637695312	-500.4451599121094	421.0778503417969	809.239501953125	-545.4645385742188	419.6009521484375	946.4265747070312	-542.6153564453125	517.3370971679688	696.1394653320312	-512.599853515625	453.3531188964844	760.9608154296875	-549.5440063476562	513.065185546875	779.010498046875	-530.1912231445312	266.1860961914062	1358.380249023438	-139.7527008056641	231.1038513183594	1293.1689453125	-92.77187347412109	190.4155731201172	1029.808715820312	-54.08328628540039	161.2178649902344	1016.400024414062	-112.0888595581055	266.4686279296875	813.7153930664062	-41.00971603393555	175.4386596679688	800.9754028320312	-35.25447845458984	183.5405120849609	975.9229736328125	-47.79004669189453	243.4850006103516	656.9337158203125	-38.79256057739258	254.1198577880859	722.4652099609375	-13.3241081237793	184.5464172363281	730.0001831054688	-24.93193435668945	275.572021484375	1513.865600585938	-196.9033508300781	450.7159423828125	1575.964965820312	-271.39111328125	399.3775634765625	1558.871948242188	-156.1016845703125	326.7722778320312	1532.6826171875	-347.6782531738281	377.5180358886719	897.7556762695312	-459.6332702636719	284.0991821289062	852.8252563476562	-91.93003845214844	391.8297424316406	907.8545532226562	-131.6940307617188	453.6018371582031	929.3021850585938	-366.6416625976562	373.4527282714844	477.1722717285156	-420.1649780273438	395.1526794433594	634.6763305664062	-438.0126953125	265.1043090820312	44.38468933105469	-417.493896484375	337.2735595703125	328.4703063964844	-426.075927734375	451.6040954589844	38.41835784912109	-327.40771484375	369.5039367675781	45.40750503540039	-306.60546875	374.9087829589844	36.58346176147461	-408.8898010253906	210.6265258789062	45.85437393188477	-363.6618041992188	442.5367126464844	499.7925720214844	-103.0770950317383	341.4547729492188	737.383056640625	-80.91307067871094	302.8848876953125	101.5995788574219	-203.4348297119141	434.2543334960938	361.2299499511719	-119.3918380737305	465.4110107421875	52.29645538330078	-100.4569549560547	448.5193481445312	55.85410690307617	-171.4699859619141	368.6083068847656	71.90671539306641	-118.8271865844727	297.8647766113281	102.3557891845703	-273.2663879394531	nan	nan	nan	nan	nan	nan	
327	3.26	214.3479766845703	949.4296875	-236.1968383789062	251.1768341064453	960.7806396484375	-353.1836242675781	231.8305358886719	1029.778564453125	-303.2187194824219	441.7493591308594	1195.284790039062	-250.7313537597656	220.0607604980469	1130.296997070312	-308.8175048828125	261.5472412109375	1361.837768554688	-295.4511413574219	406.992431640625	1290.33837890625	-258.5039978027344	191.2154235839844	1240.665893554688	-226.0825042724609	258.61572265625	1307.191650390625	-385.7280883789062	365.3446960449219	1359.384399414062	-433.4903869628906	375.9115295410156	1236.459228515625	-499.8344116210938	409.4868469238281	1030.589965820312	-536.6421508789062	328.6582946777344	1011.023254394531	-481.2449340820312	507.6919250488281	849.5997924804688	-494.9982299804688	436.6223754882812	808.828857421875	-542.4021606445312	434.1624145507812	945.8866577148438	-539.1419677734375	532.277587890625	695.9208374023438	-507.6692504882812	469.1888122558594	760.8147583007812	-545.9766235351562	528.2279663085938	778.8939819335938	-524.6602783203125	273.6842346191406	1357.354614257812	-138.5335998535156	237.9210815429688	1292.349853515625	-92.05657958984375	194.0105590820312	1029.456420898438	-54.65902709960938	165.7426910400391	1016.411254882812	-113.2019653320312	267.8748168945312	812.6701049804688	-40.41608047485352	176.5948333740234	800.8289794921875	-36.48031234741211	186.5249786376953	975.6432495117188	-48.55290222167969	243.2856292724609	656.1046142578125	-38.65845108032227	254.0100860595703	721.5459594726562	-12.98130989074707	184.6253662109375	729.82470703125	-25.81194114685059	283.4078369140625	1512.551391601562	-195.3460845947266	459.1634521484375	1575.011108398438	-268.1049499511719	406.92138671875	1557.38330078125	-153.3096771240234	335.8898010253906	1532.074951171875	-345.610107421875	385.3609008789062	896.8883056640625	-458.2509765625	292.2352905273438	852.2510375976562	-90.23060607910156	399.8330383300781	907.3784790039062	-129.9621276855469	461.885009765625	928.3841552734375	-364.8775939941406	376.6751403808594	476.5034790039062	-419.8699951171875	400.5274353027344	633.7471313476562	-436.9971923828125	265.1283874511719	44.49098968505859	-417.3218688964844	338.6727905273438	328.399658203125	-426.009033203125	451.5554809570312	38.33107757568359	-327.4027709960938	369.6010131835938	45.33649444580078	-306.6491088867188	374.9703979492188	36.61183547973633	-408.8775939941406	210.7105255126953	46.11141586303711	-363.5772094726562	451.8262023925781	499.8196716308594	-100.6472015380859	349.4212341308594	737.0693969726562	-78.61562347412109	331.3417663574219	93.58588409423828	-197.3847961425781	449.2838134765625	359.9587097167969	-115.3507461547852	495.4814147949219	53.33835983276367	-92.88375854492188	479.0095825195312	55.34630966186523	-164.0110015869141	397.9704284667969	68.03092193603516	-112.1585235595703	326.9745178222656	93.16195678710938	-267.4650268554688	nan	nan	nan	nan	nan	nan	
328	3.27	222.3444976806641	948.1555786132812	-234.5649108886719	259.3765563964844	959.586669921875	-351.4403076171875	240.0816802978516	1028.724365234375	-301.8868408203125	449.7330322265625	1194.154052734375	-248.7170715332031	228.1125030517578	1129.241088867188	-307.7628479003906	269.94189453125	1360.760620117188	-294.1940612792969	415.0429382324219	1289.222412109375	-256.5341186523438	199.0889282226562	1239.710083007812	-225.2104187011719	267.3840637207031	1306.151000976562	-384.5632934570312	374.2991027832031	1358.244140625	-431.7617492675781	386.4700317382812	1235.3115234375	-497.9742431640625	423.0928344726562	1029.60498046875	-533.65283203125	341.469970703125	1009.412414550781	-479.8116455078125	521.6487426757812	848.9865112304688	-489.2991638183594	452.1247863769531	808.21142578125	-538.9253540039062	448.6143188476562	945.149658203125	-535.3703002929688	547.0626831054688	695.4402465820312	-502.1955871582031	484.8628234863281	760.3717041015625	-541.9107666015625	543.2501831054688	778.4959716796875	-518.7342529296875	281.1847534179688	1356.186401367188	-137.1961975097656	244.7802276611328	1291.38671875	-91.20174407958984	197.8098754882812	1028.958740234375	-55.1820182800293	170.4580383300781	1016.278503417969	-114.2350082397461	269.5024108886719	811.4884033203125	-39.93182754516602	178.0132598876953	800.5415649414062	-37.74519348144531	189.722900390625	975.2142333984375	-49.27970504760742	243.3283081054688	655.1587524414062	-38.7374382019043	254.1684112548828	720.4904174804688	-12.82809925079346	184.9867095947266	729.5136108398438	-26.79496574401855	291.2156066894531	1511.083251953125	-193.6989288330078	467.5543823242188	1573.886840820312	-264.7601013183594	414.4287414550781	1555.733764648438	-150.4563751220703	344.9622802734375	1531.297241210938	-343.4489135742188	393.2789001464844	895.9324340820312	-456.6907958984375	300.4656372070312	851.4557495117188	-88.42646026611328	407.8936462402344	906.6986694335938	-128.1825103759766	470.1237487792969	927.3887329101562	-363.0924682617188	380.0490417480469	475.8272094726562	-419.432861328125	405.9747924804688	632.7587280273438	-435.9404907226562	265.1769409179688	44.63417816162109	-417.1609802246094	340.2727966308594	328.2995300292969	-425.8339233398438	451.4913330078125	38.21593856811523	-327.4000549316406	369.7020874023438	45.23786163330078	-306.6849975585938	375.0360107421875	36.64865875244141	-408.8502197265625	210.8049011230469	46.38579559326172	-363.4784851074219	460.7577514648438	499.4453735351562	-98.29102325439453	357.4176940917969	736.4768676757812	-76.318115234375	359.88818359375	86.00825500488281	-190.8738403320312	464.05224609375	358.531005859375	-111.3281784057617	525.33203125	54.91188430786133	-85.20856475830078	509.2961730957031	55.4290885925293	-156.4098815917969	427.3480529785156	64.58865356445312	-105.207649230957	356.1711730957031	84.46213531494141	-261.2061157226562	nan	nan	nan	nan	nan	nan	
329	3.28	230.3528594970703	946.6962280273438	-232.7555541992188	267.531982421875	958.2389526367188	-349.53076171875	248.2495269775391	1027.484375	-300.3824462890625	457.6939392089844	1192.885375976562	-246.5884704589844	236.1526947021484	1128.02392578125	-306.4678039550781	278.2994995117188	1359.52392578125	-292.8127746582031	423.0626525878906	1287.96875	-254.4508209228516	206.9091491699219	1238.61083984375	-224.1679992675781	276.0931091308594	1304.920166015625	-383.2638854980469	383.20263671875	1356.876220703125	-429.9356689453125	396.9502563476562	1233.906372070312	-495.9063720703125	436.5728759765625	1028.418212890625	-530.361328125	354.2085571289062	1007.566650390625	-478.023681640625	535.5184326171875	848.2021484375	-483.3893432617188	467.5508117675781	807.3921508789062	-535.0267333984375	462.9143371582031	944.2160034179688	-531.3240356445312	561.7199096679688	694.7460327148438	-496.1834106445312	500.3689880371094	759.6377563476562	-537.33984375	558.1273193359375	777.8610229492188	-512.4501342773438	288.6782531738281	1354.8837890625	-135.7415466308594	251.6669464111328	1290.285888671875	-90.21033477783203	201.8191986083984	1028.316528320312	-55.64046096801758	175.3721313476562	1015.992309570312	-115.1790771484375	271.3688049316406	810.1700439453125	-39.55014419555664	179.7015533447266	800.10888671875	-39.03329849243164	193.1448059082031	974.632080078125	-49.95222473144531	243.6314697265625	654.0924072265625	-39.03530502319336	254.6187591552734	719.2901000976562	-12.86221218109131	185.6652069091797	729.054443359375	-27.88492965698242	298.9980163574219	1509.483032226562	-191.9559326171875	475.892333984375	1572.599243164062	-261.3594055175781	421.8934020996094	1553.939453125	-147.5449523925781	353.9888305664062	1530.350952148438	-341.197021484375	401.2720947265625	894.8893432617188	-454.9536743164062	308.7674560546875	850.43408203125	-86.53829956054688	416.0224914550781	905.8204956054688	-126.3533020019531	478.3361511230469	926.3135986328125	-361.2861938476562	383.5907592773438	475.1351013183594	-418.8517150878906	411.5579223632812	631.7229614257812	-434.8007202148438	265.2390747070312	44.8187255859375	-416.9949951171875	342.0815124511719	328.1668395996094	-425.5376586914062	451.4269104003906	38.07321929931641	-327.3877868652344	369.7972717285156	45.10534286499023	-306.6896362304688	375.1028442382812	36.69097518920898	-408.8004455566406	210.9114074707031	46.6792106628418	-363.359130859375	469.3807067871094	498.6733703613281	-96.02238464355469	365.46240234375	735.6110229492188	-74.02665710449219	388.488525390625	78.94100189208984	-183.9536285400391	478.5657348632812	356.9781494140625	-107.3533096313477	554.8836059570312	57.07918930053711	-77.43953704833984	539.291015625	56.14271926879883	-148.6818237304688	456.6685485839844	61.66858673095703	-97.99070739746094	385.401611328125	76.32600402832031	-254.5247497558594	nan	nan	nan	nan	nan	nan	
